<?xml version="1.0" encoding="UTF-8" standalone="no"?><!DOCTYPE svg PUBLIC "-//W3C//DTD SVG 1.1//EN" "http://www.w3.org/Graphics/SVG/1.1/DTD/svg11.dtd"><svg width="100%" height="100%" viewBox="0 0 28 24" version="1.1" xmlns="http://www.w3.org/2000/svg" xmlns:xlink="http://www.w3.org/1999/xlink" xml:space="preserve" xmlns:serif="http://www.serif.com/" style="fill-rule:evenodd;clip-rule:evenodd;stroke-linejoin:round;stroke-miterlimit:1.41421;"><path d="M8.807,23.379c10.566,0 16.346,-8.755 16.346,-16.347c0,-0.248 -0.006,-0.495 -0.018,-0.741c1.121,-0.811 2.096,-1.823 2.865,-2.974c-1.029,0.456 -2.136,0.765 -3.298,0.905c1.187,-0.711 2.097,-1.839 2.527,-3.18c-1.111,0.658 -2.34,1.138 -3.649,1.395c-1.046,-1.117 -2.541,-1.815 -4.193,-1.815c-3.172,0 -5.746,2.574 -5.746,5.744c0,0.452 0.051,0.891 0.148,1.31c-4.771,-0.239 -9.007,-2.526 -11.841,-6.002c-0.493,0.85 -0.778,1.837 -0.778,2.887c0,1.994 1.014,3.755 2.557,4.783c-0.941,-0.03 -1.826,-0.288 -2.6,-0.719c-0.002,0.024 -0.002,0.047 -0.002,0.073c0,2.784 1.981,5.108 4.608,5.632c-0.483,0.132 -0.99,0.203 -1.514,0.203c-0.369,0 -0.73,-0.038 -1.08,-0.106c0.732,2.283 2.852,3.945 5.367,3.991c-1.965,1.541 -4.443,2.46 -7.135,2.46c-0.462,0 -0.921,-0.027 -1.371,-0.08c2.543,1.629 5.561,2.581 8.807,2.581" style="fill:#fff;fill-rule:nonzero;"/></svg>